<svg width="153" height="153" viewBox="0 0 153 153" fill="none" xmlns="http://www.w3.org/2000/svg">
<path opacity="0.3" d="M143.158 39.228C140.317 46.4193 135.801 27.1827 128.609 24.342C121.418 21.5013 103.447 22.7159 106.288 15.5246C109.128 8.33336 130.087 7.72244 137.278 10.5631C144.469 13.4038 145.998 32.0367 143.158 39.228Z" fill="#03A9F4"/>
<circle opacity="0.1" cx="130" cy="146.287" r="6" fill="#03A9F4"/>
<circle opacity="0.1" cx="120" cy="37.2871" r="6" fill="#03A9F4"/>
<circle opacity="0.1" cx="6" cy="75.2871" r="6" fill="#03A9F4"/>
<rect x="84.7422" y="39.8809" width="64.5508" height="86.0678" rx="18" transform="rotate(30 84.7422 39.8809)" fill="#CD0000" fill-opacity="0.4"/>
<circle opacity="0.1" cx="42" cy="130.287" r="11" fill="#03A9F4"/>
<rect x="39" y="45.2866" width="72" height="96" rx="18" fill="#CD0000"/>
<circle opacity="0.1" cx="97.5" cy="60.7866" r="17.5" fill="#301008"/>
<circle cx="101.5" cy="55.7866" r="17.5" fill="#FFF6F4"/>
<path d="M97 61.486L102.243 56.243M107.486 51L102.242 56.243M102.242 56.243L97 51M102.243 56.243L107.486 61.486" stroke="#CD0000" stroke-width="2" stroke-linecap="round" stroke-linejoin="round"/>
<rect x="50" y="60.2866" width="19" height="19" rx="5" fill="white"/>
<path d="M52 94.2866H99.5" stroke="white" stroke-width="5"/>
<path d="M52 107.287H99.5" stroke="white" stroke-width="5"/>
<path d="M52 120.287L78 120.287" stroke="white" stroke-width="5"/>
<path d="M120.161 78.0397C121.627 77.5674 123.054 78.8586 122.73 80.3638L122.184 82.9038C121.86 84.409 120.028 84.9993 118.887 83.9663L116.96 82.2233C115.818 81.1903 116.223 79.3089 117.688 78.8366L120.161 78.0397Z" fill="#FBCBCB"/>
<path d="M26.4535 139.105C27.1862 138.869 27.8997 139.515 27.7379 140.267L27.2248 142.653C27.063 143.406 26.1471 143.701 25.5762 143.185L23.7667 141.547C23.1959 141.031 23.3982 140.09 24.1309 139.854L26.4535 139.105Z" fill="#FBCBCB"/>
<path d="M45.4535 34.1055C46.1862 33.8693 46.8997 34.5149 46.7379 35.2675L46.2248 37.6532C46.063 38.4058 45.1471 38.701 44.5762 38.1845L42.7667 36.5473C42.1959 36.0308 42.3982 35.0901 43.1309 34.854L45.4535 34.1055Z" fill="#FBCBCB"/>
</svg>
