<svg width="100" height="100" viewBox="0 0 100 100" fill="none" xmlns="http://www.w3.org/2000/svg">
<g clip-path="url(#clip0_3019_9937)">
<path d="M83.5 25.5L59.5 6.5L31 10.5L20.5 87C37.8333 88.5 72.8 91.5 74 91.5C75.2 91.5 80.8333 47.5 83.5 25.5Z" fill="#0B1237"/>
<path d="M43.75 43.75C43.75 42.0924 44.4085 40.5027 45.5806 39.3306C46.7527 38.1585 48.3424 37.5 50 37.5C51.6576 37.5 53.2473 38.1585 54.4194 39.3306C55.5915 40.5027 56.25 42.0924 56.25 43.75V50H43.75V43.75ZM37.5 58.125C37.5 57.8625 37.625 57.4563 38.1563 57.0313C38.8691 56.503 39.738 56.2281 40.625 56.25H59.375C60.2618 56.2295 61.1302 56.5043 61.8438 57.0313C62.375 57.4563 62.5 57.8625 62.5 58.125V73.125C62.5 73.3875 62.375 73.7938 61.8438 74.2188C61.1309 74.747 60.262 75.022 59.375 75H40.625C39.738 75.022 38.8691 74.747 38.1563 74.2188C37.625 73.7938 37.5 73.3875 37.5 73.125V58.125Z" fill="#2EC866"/>
<path d="M58.0813 0H25C21.6848 0 18.5054 1.31696 16.1612 3.66117C13.817 6.00537 12.5 9.18479 12.5 12.5V87.5C12.5 90.8152 13.817 93.9946 16.1612 96.3388C18.5054 98.683 21.6848 100 25 100H75C78.3152 100 81.4946 98.683 83.8388 96.3388C86.183 93.9946 87.5 90.8152 87.5 87.5V29.4187C87.4996 27.7613 86.8409 26.1718 85.6687 25L62.5 1.83125C61.3282 0.659067 59.7387 0.000353984 58.0813 0V0ZM59.375 21.875V9.375L78.125 28.125H65.625C63.9674 28.125 62.3777 27.4665 61.2056 26.2944C60.0335 25.1223 59.375 23.5326 59.375 21.875ZM62.5 43.75V50.475C65.875 51.5125 68.75 54.2063 68.75 58.125V73.125C68.75 78.225 63.8687 81.25 59.375 81.25H40.625C36.1313 81.25 31.25 78.225 31.25 73.125V58.125C31.25 54.2063 34.125 51.5125 37.5 50.475V43.75C37.5 40.4348 38.817 37.2554 41.1612 34.9112C43.5054 32.567 46.6848 31.25 50 31.25C53.3152 31.25 56.4946 32.567 58.8388 34.9112C61.183 37.2554 62.5 40.4348 62.5 43.75V43.75Z" fill="#2EC866"/>
</g>
<defs>
<clipPath id="clip0_3019_9937">
<rect width="100" height="100" fill="white"/>
</clipPath>
</defs>
</svg>
